<?xml version="1.0" standalone="no"?>
<!DOCTYPE svg PUBLIC "-//W3C//DTD SVG 20010904//EN"
 "http://www.w3.org/TR/2001/REC-SVG-20010904/DTD/svg10.dtd">
<svg version="1.0" xmlns="http://www.w3.org/2000/svg"
 width="960.000000pt" height="1280.000000pt" viewBox="0 0 960.000000 1280.000000"
 preserveAspectRatio="xMidYMid meet">
<metadata>
Created by potrace 1.16, written by Peter Selinger 2001-2019
</metadata>
<g transform="translate(0.000000,1280.000000) scale(0.100000,-0.100000)"
fill="#000000" stroke="none">
<path d="M0 9794 l0 -3006 88 6 c48 3 470 7 937 9 468 2 803 2 745 0 -274 -10
-931 -24 -1069 -24 -93 0 -159 -4 -167 -10 -7 -6 -18 -9 -26 -8 -7 2 -22 -2
-33 -8 -17 -9 -163 -10 -305 -3 -23 1 -23 2 -5 10 13 6 -12 9 -72 9 l-93 1 0
-94 0 -94 86 -7 c96 -8 324 2 361 16 28 10 85 12 135 3 25 -4 38 -2 38 5 0 6
-6 11 -13 11 -7 0 -21 6 -30 13 -15 10 -10 12 30 14 36 2 52 -3 75 -22 20 -17
42 -25 68 -25 57 0 72 8 59 32 -6 11 -8 22 -5 25 7 8 27 -7 21 -17 -10 -15 24
-31 79 -37 31 -3 56 -9 56 -13 0 -4 -33 -10 -72 -14 -111 -11 -152 -17 -157
-21 -2 -3 1 -16 7 -30 7 -15 8 -26 1 -30 -5 -4 -7 -10 -5 -14 3 -4 -3 -21 -14
-38 -34 -56 -25 -160 12 -137 12 8 48 -15 48 -31 0 -8 5 -15 10 -15 6 0 10
-11 10 -23 0 -13 7 -38 16 -56 14 -29 14 -34 -3 -69 -16 -33 -22 -37 -63 -40
-33 -3 -47 1 -57 14 -20 28 -16 72 10 98 16 16 21 29 16 42 -3 10 -2 25 3 32
10 12 9 13 -34 16 -7 1 -13 -6 -14 -14 0 -8 -8 -30 -18 -48 -10 -19 -15 -36
-12 -39 8 -8 -31 -54 -57 -68 -12 -6 -47 -12 -77 -14 -64 -2 -135 26 -145 59
-3 11 -13 20 -21 20 -8 0 -14 6 -15 13 0 6 -4 2 -9 -10 -15 -36 -40 -29 -40
11 0 21 -6 36 -15 40 -19 7 -19 30 -1 45 11 10 17 7 30 -10 28 -41 25 -14 -4
33 -16 25 -27 48 -24 51 2 2 0 26 -6 53 -9 42 -17 54 -55 79 -30 21 -45 37
-45 53 0 21 -4 22 -80 22 l-80 0 0 -1211 0 -1210 21 3 c22 3 49 -25 36 -38 -4
-4 -18 -2 -32 4 l-25 12 0 -1475 c0 -1400 1 -1474 18 -1468 9 3 80 35 157 71
77 35 156 70 175 77 31 11 212 91 420 185 36 16 159 70 275 119 116 49 345
148 510 219 165 71 338 146 385 166 101 44 93 41 248 111 68 30 125 55 127 55
3 0 61 25 130 56 69 30 130 52 137 48 6 -4 8 -3 5 3 -4 6 27 26 76 46 142 62
280 123 327 145 25 12 108 49 185 83 77 34 185 82 240 106 120 54 237 106 365
163 52 23 108 48 124 56 16 8 31 14 34 14 9 0 -4 -250 -14 -260 -6 -6 -134
-69 -285 -139 -151 -71 -332 -156 -404 -191 -71 -34 -164 -78 -205 -97 -41
-19 -133 -63 -205 -98 -71 -34 -260 -123 -420 -198 -159 -74 -339 -158 -398
-186 -60 -28 -110 -51 -112 -51 -2 0 -46 -20 -97 -44 -51 -25 -266 -124 -478
-221 -212 -97 -452 -208 -533 -246 -81 -38 -150 -69 -152 -69 -2 0 -50 -22
-107 -49 -111 -52 -148 -66 -162 -62 -5 1 -12 -2 -15 -7 -6 -9 -54 -32 -243
-117 l-108 -48 0 -143 c0 -79 4 -144 9 -144 5 0 44 18 87 39 167 83 280 133
301 133 12 0 24 7 27 15 5 12 339 180 851 428 83 40 231 112 330 160 99 48
225 109 280 135 55 26 197 95 315 153 118 57 238 114 265 127 28 12 143 67
258 122 114 56 210 99 212 96 3 -2 9 -49 14 -104 l8 -99 2 113 1 112 58 29
c31 16 87 44 123 64 37 19 89 42 115 52 27 10 77 31 111 47 35 16 65 28 69 26
3 -2 10 5 15 15 6 9 18 17 27 18 9 0 37 14 62 30 25 16 68 40 95 54 28 13 61
31 75 39 44 27 192 96 205 96 8 0 15 -25 19 -72 6 -63 39 -198 60 -248 4 -10
-2 -24 -16 -37 -27 -24 -208 -120 -288 -153 -30 -12 -68 -28 -85 -35 -16 -8
-47 -16 -67 -20 -21 -4 -38 -11 -38 -16 0 -5 -9 -9 -19 -9 -11 0 -22 -4 -26
-10 -4 -6 -15 -6 -32 1 -29 11 -46 3 -23 -11 11 -7 8 -11 -13 -19 -16 -6 -26
-15 -23 -19 2 -4 -7 -13 -22 -20 -15 -6 -33 -25 -40 -42 -8 -17 -24 -33 -38
-36 -13 -3 -28 -12 -32 -18 -4 -7 -29 -24 -57 -38 -27 -13 -77 -39 -110 -56
-39 -20 -69 -29 -83 -25 -16 4 -22 1 -22 -12 0 -29 -50 -65 -91 -65 -12 0 -84
-34 -158 -77 -75 -42 -179 -98 -231 -125 -52 -27 -107 -63 -123 -79 -29 -32
-35 -35 -262 -156 -186 -99 -324 -167 -350 -171 -10 -1 -60 -24 -110 -51 -177
-95 -242 -129 -370 -196 -71 -37 -137 -73 -145 -80 -8 -8 -123 -69 -255 -136
-132 -67 -269 -137 -305 -156 -36 -18 -68 -33 -72 -33 -16 0 -30 45 -38 123
l-8 82 0 -90 c0 -50 0 -100 -1 -112 -1 -21 -56 -72 -83 -77 -19 -3 -60 -16
-83 -26 -65 -28 -175 -81 -175 -85 0 -3 2138 -5 4750 -5 l4750 0 0 900 c0 918
0 907 -34 901 -16 -3 -106 22 -106 30 0 4 6 10 13 12 6 3 -13 6 -43 6 -70 2
-130 16 -141 33 -5 8 -9 8 -9 2 0 -12 -68 0 -102 17 -10 5 -27 9 -38 9 -12 0
-35 7 -52 16 -18 9 -43 17 -57 18 -23 2 -91 19 -131 34 -21 7 -39 11 -85 17
-22 3 -44 10 -49 15 -6 6 -24 10 -40 10 -17 1 -49 9 -71 20 -22 10 -44 16 -48
13 -5 -3 -19 -1 -30 4 -21 10 -83 28 -137 40 -14 3 -31 12 -37 21 -9 11 -13
12 -13 3 0 -9 -7 -11 -22 -6 -13 3 -41 11 -63 16 -22 5 -47 12 -55 16 -8 4
-32 8 -53 9 -21 1 -46 9 -56 18 -10 9 -29 16 -44 16 -14 0 -29 5 -32 10 -3 6
-19 10 -34 10 -15 0 -54 9 -87 21 -32 11 -86 27 -119 35 -33 8 -67 16 -75 18
-8 2 -27 7 -42 11 -16 4 -25 11 -22 16 6 10 -42 32 -68 31 -10 0 -18 0 -18 1
-1 1 -3 29 -6 62 -2 33 -11 139 -19 235 -21 247 -55 697 -55 722 0 12 -3 19
-6 16 -5 -6 6 -214 26 -483 44 -580 44 -565 20 -565 -11 0 -23 6 -25 13 -2 6
-11 111 -20 232 -8 121 -22 308 -30 415 -36 500 -80 1156 -100 1485 -17 291
-26 449 -35 580 -5 83 -12 211 -15 285 -3 74 -10 181 -17 237 -11 96 -10 104
7 123 16 17 17 24 7 38 -25 35 -24 44 6 72 l31 28 6 -46 c11 -83 10 -82 150
-53 28 5 93 17 145 26 52 8 138 26 190 39 129 33 273 63 405 85 110 19 233 49
290 71 17 6 78 14 136 17 l106 6 1 -45 c1 -44 0 -45 -38 -58 -22 -7 -40 -18
-40 -23 0 -6 -23 -7 -58 -4 -32 4 -68 4 -80 0 -25 -6 -30 -33 -6 -33 12 0 15
-6 10 -22 -3 -13 -6 -26 -6 -30 0 -5 -7 -8 -15 -8 -9 0 -12 6 -9 15 4 10 0 15
-15 15 -12 0 -21 -4 -21 -10 0 -5 6 -10 13 -10 8 0 7 -3 -3 -10 -18 -11 -9
-20 38 -36 31 -11 40 -11 59 1 12 8 38 15 57 15 19 0 37 4 40 9 8 12 67 6 76
-9 8 -13 80 -4 80 11 0 5 7 9 15 9 8 0 15 5 15 10 0 6 -7 10 -15 10 -8 0 -15
7 -15 15 0 12 4 13 19 6 30 -16 132 -26 140 -13 7 12 93 17 134 7 21 -6 27 -4
27 9 0 11 -9 16 -30 16 -16 0 -30 5 -30 10 0 6 13 10 29 10 24 0 41 14 41 35
0 1 -18 5 -41 8 -22 3 -44 8 -47 12 -8 7 19 26 29 19 4 -2 5 5 2 16 -3 11 0
20 6 20 6 0 11 16 11 36 0 27 5 37 20 41 26 7 25 15 -5 51 -23 27 -25 36 -19
84 4 31 1 79 -6 113 -17 79 -20 213 -7 242 6 13 22 26 36 30 14 3 36 13 48 20
33 22 55 22 83 3 14 -10 39 -21 57 -24 94 -21 150 -154 126 -299 -7 -45 -26
-56 -145 -82 -62 -14 -78 -21 -78 -35 0 -32 33 -31 182 4 36 9 82 16 102 16
l36 0 0 376 0 375 -67 -6 -68 -7 -18 32 c-18 30 -18 32 -1 51 14 15 31 19 86
19 l68 0 0 2905 0 2905 -4800 0 -4800 0 0 -3006z m5717 368 c19 -40 23 -69 27
-195 3 -102 9 -153 18 -164 7 -9 16 -55 21 -102 11 -129 12 -133 25 -179 12
-39 11 -46 -8 -76 -24 -39 -16 -50 42 -60 48 -9 67 -40 75 -123 7 -79 41 -127
99 -137 37 -8 54 -30 35 -49 -16 -16 -14 -35 8 -66 11 -15 22 -38 26 -52 3
-13 21 -34 40 -47 37 -23 45 -51 21 -71 -8 -6 -16 -26 -19 -44 -10 -65 -26
-112 -42 -123 -11 -8 -15 -20 -10 -33 4 -13 -1 -27 -14 -40 -11 -11 -16 -23
-12 -26 5 -3 14 -19 20 -36 9 -27 8 -33 -15 -54 -14 -13 -38 -25 -52 -27 -21
-2 -32 -14 -49 -48 -27 -53 -29 -102 -9 -256 8 -60 19 -197 25 -304 37 -649
45 -810 40 -810 -2 0 -56 -7 -119 -15 -74 -9 -118 -10 -125 -4 -14 14 -53 630
-61 971 -7 269 -9 303 -28 350 -19 48 -25 54 -71 71 -61 22 -75 39 -68 82 4
25 0 38 -16 54 -11 11 -21 29 -21 40 0 10 -7 24 -15 31 -8 7 -15 25 -15 41 0
15 -6 32 -12 36 -7 4 -24 29 -36 55 -22 43 -23 48 -9 75 9 15 23 44 32 64 9
20 36 51 60 69 25 19 45 37 45 41 0 4 18 25 40 47 l41 40 -21 39 c-23 43 -27
153 -7 190 7 12 31 35 54 52 l42 31 -20 35 c-17 29 -19 38 -9 50 13 15 11 78
-6 212 -4 31 -2 70 5 95 9 33 10 77 2 186 -8 104 -8 154 0 187 6 25 14 45 18
45 3 0 16 -22 28 -48z m-971 -1943 c26 -13 44 -50 44 -88 0 -16 11 -45 25 -65
14 -20 33 -67 42 -104 10 -38 19 -58 21 -47 4 20 28 45 44 45 5 0 6 -10 3 -23
-4 -12 -1 -36 6 -52 10 -28 12 -29 20 -10 8 17 9 17 5 -5 -3 -14 -8 -46 -11
-73 -6 -37 -14 -52 -37 -68 -16 -12 -27 -26 -25 -33 2 -6 -7 -35 -20 -65 -13
-29 -31 -83 -39 -119 -21 -89 -37 -114 -28 -42 4 30 8 66 9 80 4 55 5 60 17
58 6 -2 14 5 16 15 4 21 -25 22 -110 5 -55 -11 -59 -11 -73 9 -9 12 -22 29
-31 37 -14 14 -10 15 33 12 26 -2 71 1 98 7 44 9 47 11 25 18 -14 4 -50 7 -81
8 -76 1 -95 23 -109 120 -6 41 -8 76 -5 79 3 3 15 -4 28 -16 45 -42 147 -38
147 7 0 11 9 21 22 24 21 6 21 7 4 26 -16 18 -17 23 -5 37 11 14 10 18 -6 30
-15 11 -39 13 -105 8 -47 -4 -92 -10 -100 -13 -26 -12 -84 2 -88 22 -3 12 5
19 28 23 44 9 58 39 31 68 -25 27 -26 44 -3 73 11 14 31 23 57 25 60 5 127 -1
151 -13z m1286 -1464 c4 -44 14 -162 22 -262 15 -184 24 -223 51 -223 18 0 19
-12 4 -27 -9 -9 -3 -15 22 -26 l34 -15 -36 -15 c-20 -9 -39 -23 -42 -31 -4 -9
-6 -115 -7 -236 0 -122 -2 -231 -5 -243 -2 -12 -7 -43 -9 -69 l-4 -47 46 -17
c26 -10 55 -25 66 -33 20 -17 114 -21 215 -7 72 9 99 14 321 66 325 75 396 89
490 92 l65 3 -3 -144 c-1 -80 -4 -147 -7 -149 -2 -3 3 -21 12 -41 16 -37 26
-122 42 -346 6 -71 15 -191 21 -265 24 -306 40 -525 50 -700 6 -102 17 -273
25 -380 8 -107 21 -312 30 -455 8 -143 17 -285 20 -315 14 -154 24 -374 18
-402 -6 -33 -33 -71 -33 -48 0 6 -8 9 -18 6 -32 -11 -132 -15 -137 -6 -3 4
-14 6 -24 3 -11 -3 -35 3 -53 12 -18 10 -55 19 -82 21 -27 2 -59 10 -70 17
-22 15 -92 32 -113 28 -7 -1 -23 4 -35 10 -25 13 -92 30 -120 30 -10 0 -18 4
-18 10 0 5 -10 8 -22 8 -13 -1 -61 11 -108 25 -47 15 -110 32 -140 37 -30 6
-57 15 -60 19 -3 5 -21 12 -40 15 -88 16 -130 23 -200 34 -111 17 -166 31
-232 58 -33 13 -81 28 -107 34 -25 5 -62 14 -81 19 -281 73 -398 104 -480 131
l-99 31 6 182 c4 144 10 192 25 236 50 140 58 187 58 361 0 93 4 190 9 216 5
26 14 82 20 123 16 107 40 248 52 298 13 60 11 119 -3 125 -10 3 -9 9 3 23 10
12 17 41 18 79 2 89 11 142 33 220 23 79 20 139 -10 207 -33 76 -43 104 -61
177 l-18 73 24 9 c13 5 34 12 47 15 13 3 34 15 47 27 17 16 37 22 78 23 61 2
113 20 150 53 13 11 29 21 35 21 6 0 28 5 50 11 l38 11 -4 186 c-5 184 -16
248 -40 240 -7 -3 -15 -15 -18 -29 -3 -13 -13 -25 -22 -27 -14 -3 -17 5 -16
48 1 52 8 62 43 67 25 4 33 13 36 38 4 27 -10 629 -17 741 -4 69 -3 93 8 101
15 13 88 20 188 19 l65 -1 7 -80z m3208 -25 c0 -23 19 -29 105 -32 48 -2 60
-7 63 -20 2 -12 -6 -22 -25 -29 -36 -14 -324 -18 -320 -4 2 6 17 12 32 13 19
3 44 19 70 48 44 47 75 57 75 24z m-2316 -376 c29 -4 46 -12 46 -20 0 -8 -9
-14 -20 -14 -10 0 -24 -9 -30 -20 -18 -34 -46 -43 -101 -31 -38 8 -54 8 -70
-2 -16 -10 -21 -9 -28 2 -6 10 -33 14 -92 14 -46 1 -93 -1 -104 -4 -13 -3 -20
2 -23 15 -7 36 24 46 142 47 61 0 120 4 131 9 25 11 87 12 149 4z m-5657 -120
c26 -20 33 -32 33 -60 0 -34 -15 -55 -74 -102 -47 -37 -143 -44 -183 -12 -14
11 -22 20 -17 20 5 0 1 5 -8 11 -10 5 -18 20 -18 31 0 33 23 88 36 88 6 0 18
7 25 16 20 24 48 33 113 33 49 1 65 -4 93 -25z m4431 -110 c26 -7 29 -30 6
-55 -13 -14 -13 -22 -4 -39 15 -28 5 -66 -20 -80 -36 -19 -119 10 -120 42 0 4
17 19 38 35 20 15 39 29 42 31 3 2 -3 8 -13 13 -24 14 -21 26 11 43 32 18 30
18 60 10z m1266 -142 c13 -16 14 -24 5 -51 -11 -30 -9 -35 14 -59 l26 -26 35
19 c43 23 76 12 100 -36 20 -40 21 -36 -14 -54 -44 -23 -66 -18 -91 17 -13 17
-25 26 -27 20 -2 -6 -27 -16 -56 -23 -45 -10 -57 -9 -85 5 -26 14 -30 20 -20
32 6 8 16 14 21 14 6 0 23 9 39 21 l29 21 -25 30 c-29 35 -32 63 -7 77 25 15
37 13 56 -7z m-4129 -353 c11 -1 46 2 78 5 41 5 61 3 71 -6 8 -7 23 -21 35
-30 11 -10 22 -28 23 -40 0 -13 1 -30 2 -38 1 -11 17 -16 61 -20 47 -4 61 -9
63 -23 3 -12 -9 -22 -40 -35 -73 -31 -96 -34 -128 -15 -26 15 -36 15 -92 4
-35 -7 -75 -15 -91 -18 -17 -3 -37 2 -55 13 -15 10 -35 20 -45 21 -52 8 -133
73 -123 98 3 8 12 15 21 15 8 0 15 4 15 8 0 4 18 19 40 32 22 14 40 29 40 33
0 5 24 6 53 3 28 -3 61 -7 72 -7z m1135 -737 c0 -42 -7 -108 -16 -147 -8 -38
-17 -117 -20 -175 -6 -151 -12 -194 -24 -198 -17 -6 -11 -42 7 -42 12 0 5 -9
-19 -25 -45 -30 -58 -31 -58 -5 0 15 7 20 26 20 14 0 23 4 19 10 -3 6 -15 10
-26 10 -10 0 -19 -4 -19 -10 0 -5 -7 -10 -15 -10 -8 0 -24 -9 -35 -20 -14 -14
-25 -17 -42 -11 -35 13 -34 31 2 31 18 0 29 4 25 10 -3 6 -28 10 -54 10 -53 0
-134 24 -152 46 -6 8 -20 14 -30 14 -11 0 -19 5 -19 10 0 6 5 10 10 10 6 0 10
9 10 20 0 11 -4 20 -10 20 -5 0 -10 -4 -10 -10 0 -5 -7 -7 -16 -3 -10 4 -17
-1 -21 -16 -9 -34 -20 -24 -33 29 -8 33 -18 51 -31 55 -23 8 -39 -1 -39 -21 0
-8 -4 -14 -10 -14 -5 0 -10 5 -10 10 0 6 -4 10 -10 10 -5 0 -10 -22 -10 -49 0
-30 -5 -51 -12 -53 -10 -4 -10 -21 -1 -79 10 -59 19 -461 14 -582 -1 -16 4
-47 10 -70 6 -23 12 -100 13 -170 1 -125 2 -129 27 -151 14 -12 51 -28 82 -35
57 -12 86 -31 49 -31 -11 0 -22 -8 -25 -19 -2 -10 -15 -21 -28 -24 -13 -3 -41
-10 -61 -15 -25 -7 -38 -7 -38 0 0 6 -8 1 -17 -9 -25 -27 -64 -42 -88 -33 -11
5 -57 5 -102 3 -44 -3 -89 -2 -100 2 -10 5 -22 7 -26 6 -5 -1 -6 3 -3 8 3 5
-1 11 -9 15 -19 7 -19 26 0 26 8 0 15 5 15 10 0 6 -15 8 -40 4 -25 -4 -40 -3
-40 4 0 6 4 12 8 14 5 2 5 14 1 28 -7 24 -7 24 -8 3 -1 -20 -7 -23 -39 -23
-29 0 -39 5 -47 23 -7 15 -20 23 -42 25 -18 2 -33 8 -33 14 0 7 -19 9 -57 5
-34 -4 -52 -2 -44 3 11 6 8 9 -10 13 -23 4 -22 4 4 6 48 2 29 21 -22 21 -31 0
-53 -5 -61 -15 -7 -8 -21 -15 -31 -15 -11 0 -19 -5 -19 -11 0 -6 7 -8 18 -4
11 4 13 3 7 -3 -14 -14 -105 9 -105 25 0 7 -9 13 -19 13 -23 0 -36 16 -21 25
17 11 11 24 -14 31 -15 3 -23 11 -20 19 7 17 -20 26 -98 31 -44 3 -68 1 -68
-5 0 -6 -10 -11 -22 -11 l-23 1 23 18 c12 11 22 22 22 26 0 4 -33 5 -72 3 -40
-3 -58 -3 -40 -1 36 5 44 32 17 59 -19 20 -19 44 0 44 8 0 15 7 15 15 0 9 -6
12 -15 9 -8 -4 -15 -10 -15 -15 0 -5 -18 -9 -39 -9 -22 0 -43 -4 -46 -10 -10
-16 -67 -12 -80 7 -11 15 -14 15 -36 0 -13 -10 -31 -17 -41 -17 -9 0 -20 -5
-24 -12 -4 -7 -3 -8 4 -4 8 5 10 2 6 -8 -9 -23 -29 -20 -46 6 -13 20 -17 21
-32 9 -13 -11 -19 -11 -31 -1 -8 7 -25 10 -39 6 -16 -4 -30 0 -40 9 -8 8 -25
15 -38 15 -13 1 -36 7 -53 15 l-30 14 31 -6 c37 -6 53 11 24 27 -13 7 -20 7
-20 1 0 -16 -107 -11 -121 5 -6 8 -19 14 -29 14 -26 0 -90 29 -90 40 0 6 -13
10 -28 10 -15 0 -33 5 -40 12 -8 8 -12 8 -12 1 0 -12 -81 -6 -90 7 -7 10 -42
23 -70 26 -23 2 -40 6 -145 33 -22 6 -57 11 -77 11 -21 0 -38 3 -38 8 0 4 -21
13 -48 20 -26 7 -60 16 -77 22 -16 5 -97 25 -180 45 -82 20 -179 48 -215 62
-36 14 -85 30 -110 35 -25 4 -64 16 -87 25 -34 12 -43 21 -43 40 0 32 28 59
70 67 19 4 98 22 175 41 77 19 208 50 290 70 83 20 164 40 180 45 37 10 263
57 325 67 14 2 98 20 185 39 192 43 221 48 350 69 100 16 117 20 250 55 196
53 328 82 402 90 45 5 106 15 135 24 29 8 89 20 133 26 44 7 118 25 165 40 47
15 119 35 160 44 41 9 100 23 130 32 30 9 73 20 95 24 22 5 58 14 80 20 22 7
76 14 120 16 69 4 152 22 245 55 14 5 50 13 80 18 91 15 172 32 220 45 70 20
80 10 80 -82z m-3075 -1098 c33 -10 63 -22 66 -27 3 -5 9 -8 13 -8 3 1 20 1
37 1 27 0 30 -2 19 -15 -7 -8 -10 -25 -6 -40 6 -23 3 -25 -24 -25 -17 0 -38 4
-48 10 -35 20 -78 33 -104 31 -52 -4 -158 32 -158 53 0 6 12 19 28 29 32 21
88 18 177 -9z m3798 -214 c15 -63 14 -115 -4 -125 -4 -3 -5 -13 -2 -22 4 -11
3 -14 -5 -9 -8 5 -12 -3 -12 -26 0 -18 -4 -39 -9 -46 -4 -7 -6 12 -3 43 4 46
2 55 -12 55 -10 0 -16 -8 -15 -22 0 -22 1 -22 9 -3 11 25 11 -1 0 -35 -7 -23
-8 -23 -9 -3 -1 12 -6 25 -11 28 -14 8 -3 92 21 169 11 32 19 68 20 80 0 20 1
20 8 1 5 -11 15 -49 24 -85z m-53 -872 c0 -29 3 -96 6 -149 l7 -96 -37 -37
c-21 -20 -41 -34 -46 -31 -4 3 -10 -1 -13 -8 -6 -16 -76 -51 -84 -43 -4 3 -1
43 6 88 7 46 16 125 20 177 l6 94 55 28 c76 39 80 38 80 -23z m803 -742 c16
-12 8 -19 -80 -74 -54 -33 -107 -69 -117 -81 -11 -12 -29 -21 -42 -21 -21 0
-22 2 -13 30 13 37 63 77 154 123 81 42 75 40 98 23z m-1104 -441 c16 -8 34
-28 39 -45 13 -35 10 -36 -24 -14 -19 13 -39 15 -87 11 -65 -5 -245 -58 -286
-84 -32 -21 -52 -2 -27 26 23 25 69 47 186 88 104 36 156 41 199 18z m52 -136
c31 -33 38 -55 15 -46 -63 24 -154 12 -443 -60 -13 -3 -23 -1 -23 4 0 39 96
74 345 126 54 12 77 6 106 -24z"/>
<path d="M9354 5715 c-18 -8 -36 -27 -44 -45 -11 -28 -11 -34 7 -58 11 -15 32
-34 46 -42 25 -14 28 -13 67 25 43 42 46 54 29 104 -9 26 -16 31 -42 30 -18 0
-46 -7 -63 -14z"/>
<path d="M7911 5602 c-6 -2 -11 -10 -11 -17 0 -8 -5 -17 -10 -20 -16 -10 -50
5 -50 21 0 10 -12 14 -40 14 -29 0 -40 -4 -40 -15 0 -11 -11 -15 -40 -15 -36
0 -40 -2 -40 -25 0 -22 -4 -25 -37 -25 -20 0 -45 7 -55 17 -14 12 -21 14 -30
5 -9 -9 -7 -16 7 -32 13 -15 31 -20 67 -20 26 0 48 -4 48 -10 0 -13 76 -13
101 0 13 8 25 7 40 -1 15 -8 24 -8 28 -1 4 6 59 13 129 16 67 3 126 7 132 11
5 3 2 14 -8 25 -11 14 -29 20 -59 20 -39 0 -43 2 -43 24 0 21 -6 24 -39 28
-22 2 -45 2 -50 0z"/>
</g>
</svg>
