<?xml version="1.0" standalone="no"?>
<!DOCTYPE svg PUBLIC "-//W3C//DTD SVG 20010904//EN"
 "http://www.w3.org/TR/2001/REC-SVG-20010904/DTD/svg10.dtd">
<svg version="1.0" xmlns="http://www.w3.org/2000/svg"
 width="395.000000pt" height="545.000000pt" viewBox="0 0 395.000000 545.000000"
 preserveAspectRatio="xMidYMid meet">
<metadata>
Created by potrace 1.16, written by Peter Selinger 2001-2019
</metadata>
<g transform="translate(0.000000,545.000000) scale(0.100000,-0.100000)"
fill="#000000" stroke="none">
<path d="M90 4463 c0 -494 -3 -1221 -7 -1615 -5 -577 -4 -720 7 -733 7 -8 9
-15 6 -15 -4 0 -2 -9 4 -19 7 -15 6 -23 -5 -35 -20 -20 -21 -126 -1 -126 8 0
17 -6 19 -12 3 -7 6 -4 6 7 1 15 9 20 34 22 17 1 51 5 74 8 37 6 46 3 81 -25
26 -20 50 -53 67 -91 14 -32 40 -78 58 -101 18 -24 38 -55 46 -70 14 -28 31
-37 31 -18 0 6 -4 10 -9 10 -5 0 -13 15 -16 33 -7 30 -34 76 -62 105 -7 7 -13
18 -13 24 0 6 -11 26 -25 44 -14 18 -25 39 -25 48 0 8 -4 18 -10 21 -5 3 -10
15 -10 26 0 15 7 19 34 19 28 0 39 -7 57 -33 13 -17 26 -34 29 -37 4 -3 10
-14 14 -25 l8 -20 8 20 c5 11 9 31 10 45 1 23 2 24 14 8 17 -23 28 -23 24 0
-2 9 3 17 11 17 15 0 22 -11 43 -62 7 -17 20 -34 30 -37 23 -5 42 26 26 42 -7
7 -9 12 -6 12 4 0 14 -8 24 -17 13 -13 19 -14 22 -5 6 18 23 15 20 -4 -2 -10
7 -20 21 -26 24 -9 24 -8 6 12 -16 17 -16 20 -2 20 9 0 19 -5 22 -10 8 -13 47
-13 82 2 15 6 34 10 40 9 8 -1 10 5 6 16 -6 16 -5 16 10 4 27 -22 20 -46 -24
-84 -22 -20 -38 -41 -34 -47 4 -6 1 -18 -6 -27 -7 -8 -18 -23 -24 -33 -5 -10
-28 -42 -50 -71 -40 -54 -54 -77 -118 -200 -33 -65 -40 -102 -38 -211 0 -16
-5 -28 -10 -28 -6 0 -9 -7 -5 -15 3 -8 3 -22 0 -30 -11 -28 -19 -15 -17 27 2
56 -12 82 -20 39 -4 -17 -12 -31 -18 -31 -8 0 -8 4 1 15 7 9 11 18 8 21 -3 3
-19 -12 -36 -33 -23 -30 -28 -43 -21 -56 15 -25 27 -21 21 8 -2 15 0 25 7 25
10 0 16 -29 12 -54 -1 -4 10 -6 23 -2 18 4 24 3 21 -6 -2 -7 -11 -38 -19 -69
-16 -58 -36 -71 -65 -41 -12 12 -12 15 0 24 10 7 6 8 -15 3 -35 -7 -55 15 -56
63 0 25 -4 32 -19 32 -10 0 -21 -9 -24 -20 -3 -11 -1 -18 3 -15 5 3 9 -3 9
-12 1 -10 3 -38 6 -63 3 -25 2 -39 -1 -32 -3 6 -10 12 -15 12 -5 0 -8 -6 -6
-12 1 -7 -6 -12 -16 -10 -12 2 -17 -4 -17 -23 0 -19 -5 -25 -21 -25 -11 0 -18
4 -14 9 3 5 1 12 -4 15 -5 3 -11 0 -14 -8 -8 -19 -55 -26 -68 -10 -6 7 -9 19
-6 26 4 8 6 7 6 -4 1 -10 5 -18 10 -18 11 0 9 19 -3 38 -5 9 -1 18 10 27 11 7
19 17 19 22 0 5 10 21 22 37 19 24 23 26 23 10 1 -18 1 -18 11 -1 5 9 7 22 4
27 -8 13 1 13 25 0 17 -9 19 -6 18 40 -1 40 -4 47 -15 39 -7 -6 -10 -15 -7
-20 12 -20 -9 -7 -42 25 -29 29 -34 38 -28 62 4 16 12 32 18 36 6 5 1 8 -11 8
-13 0 -23 5 -23 10 0 6 4 10 9 10 5 0 13 9 16 20 9 30 22 24 30 -12 4 -18 14
-42 21 -53 8 -11 14 -30 14 -42 0 -13 4 -23 9 -23 5 0 8 18 8 40 -1 22 -6 40
-11 40 -4 0 -5 11 -2 24 4 18 2 23 -10 22 -11 -1 -17 8 -19 26 -2 15 -8 35
-14 45 -9 16 -10 15 -8 -7 1 -19 -3 -25 -18 -25 -12 0 -20 -7 -20 -17 0 -10
-8 -25 -18 -35 -10 -11 -17 -13 -17 -5 0 7 5 12 10 12 15 0 12 48 -2 53 -10 3
-10 11 -2 33 5 16 7 40 4 54 -6 23 -7 23 -12 5 -4 -11 -10 -35 -13 -54 -5 -21
-14 -35 -26 -38 -19 -5 -27 -33 -9 -33 6 0 10 -4 10 -10 0 -19 -30 3 -36 26
-5 20 -9 22 -21 13 -9 -9 -11 -15 -3 -23 5 -5 10 -14 10 -20 0 -5 -3 -7 -6 -3
-4 3 -12 0 -19 -7 -8 -8 -13 -49 -14 -124 -2 -104 -1 -111 16 -106 16 6 16 5
2 -7 -14 -13 -15 -63 -10 -494 l6 -480 1883 -3 1882 -2 0 852 c-1 743 -3 850
-15 827 -10 -19 -26 -28 -57 -34 -59 -11 -150 -8 -184 6 -16 7 -49 16 -74 20
-54 11 -55 11 -104 32 -21 9 -41 17 -45 17 -4 0 -24 9 -46 20 -22 11 -47 20
-56 20 -20 0 -53 35 -45 49 3 5 -1 16 -9 24 -8 9 -15 20 -15 26 0 6 -5 11 -11
11 -5 0 -7 -6 -3 -12 4 -7 4 -10 0 -6 -4 3 -9 28 -11 55 -1 26 -9 64 -17 84
-11 25 -13 41 -6 54 11 19 -5 37 -26 29 -6 -2 -26 9 -44 26 -18 16 -29 30 -23
30 5 0 17 -7 26 -16 9 -9 19 -14 22 -10 6 6 -36 45 -49 46 -5 0 -8 5 -8 12 0
6 9 3 20 -7 11 -10 23 -15 27 -11 8 8 -38 42 -51 38 -5 -2 -6 4 -2 13 3 9 6
18 6 21 0 2 7 1 15 -2 24 -10 17 9 -11 30 -22 16 -32 17 -62 8 -42 -13 -49
-10 -28 10 13 14 12 18 -11 36 -15 12 -39 24 -55 27 -28 7 -29 8 -22 53 4 26
3 44 -2 39 -4 -4 -9 -15 -10 -25 -11 -78 -40 -125 -74 -119 -21 3 -19 42 3 41
15 -2 15 1 -3 23 -28 36 -26 61 4 56 13 -3 27 0 30 6 4 7 -1 11 -13 11 -16 0
-21 6 -21 24 0 14 -4 28 -10 31 -16 10 -12 32 8 39 9 3 22 9 29 12 6 3 19 -9
29 -25 23 -39 34 -39 34 -2 0 30 -15 51 -22 30 -2 -6 -14 -2 -27 10 -13 12
-21 24 -17 28 3 4 13 -2 21 -13 19 -26 19 -4 -1 24 -8 12 -20 20 -25 17 -5 -4
-9 1 -9 10 0 12 -4 13 -17 7 -10 -5 -23 -7 -30 -5 -18 6 -71 -24 -84 -48 -19
-37 -28 -76 -18 -86 12 -12 -16 -69 -39 -78 -11 -4 -23 2 -37 19 -24 30 -37
32 -55 11 -7 -8 -24 -15 -37 -15 -16 0 -27 -7 -30 -20 -3 -11 -8 -20 -12 -20
-13 1 -38 25 -35 35 5 14 -13 41 -22 33 -4 -4 -6 -37 -5 -74 1 -73 18 -99 56
-88 20 6 58 10 108 13 16 0 30 8 34 19 15 41 26 44 40 11 15 -36 13 -40 -37
-59 -19 -8 -50 -30 -68 -49 -27 -30 -34 -34 -42 -21 -9 13 -12 12 -25 -4 -11
-14 -18 -16 -28 -8 -10 9 -17 7 -29 -7 -9 -10 -22 -21 -29 -23 -12 -4 -12 -7
0 -21 9 -11 10 -17 2 -17 -6 0 -11 4 -11 9 0 5 -9 11 -20 14 -19 5 -20 2 -14
-31 4 -21 16 -47 27 -60 29 -31 11 -46 -43 -37 -23 4 -39 9 -36 12 3 3 -4 13
-16 22 -18 15 -19 21 -9 40 16 29 -6 57 -50 63 -25 4 -29 1 -29 -19 l0 -24
-30 21 c-32 23 -40 21 -14 -4 8 -9 11 -16 5 -16 -5 0 -17 10 -25 22 -9 12 -18
19 -22 15 -11 -10 -46 13 -42 28 2 8 37 38 78 67 121 87 242 248 187 248 -26
0 -50 80 -24 80 6 0 23 9 36 19 l24 19 -38 -2 c-37 -1 -40 1 -45 34 -4 19 -12
45 -18 56 -19 36 -101 102 -135 110 -40 8 -96 34 -119 53 -16 12 -18 12 -18
-2 0 -10 29 -29 77 -52 43 -20 89 -45 104 -56 44 -31 68 -101 60 -175 0 -6
-19 -19 -40 -29 -22 -10 -42 -24 -45 -31 -3 -8 -12 -14 -20 -14 -8 0 -18 -5
-21 -11 -5 -7 5 -8 29 -4 20 4 36 3 36 -1 0 -12 -37 -36 -75 -50 -21 -8 -29
-17 -27 -29 2 -10 -2 -22 -10 -26 -21 -14 -146 -8 -159 7 -19 24 0 35 47 28
38 -5 50 -2 94 26 27 18 50 34 50 35 0 2 -15 -1 -32 -7 -66 -20 -78 -21 -78
-4 0 9 -6 16 -14 16 -7 0 -19 7 -26 15 -7 8 -24 15 -37 15 -23 0 -24 -2 -12
-17 7 -10 1 -7 -14 6 -23 21 -30 23 -51 13 -14 -6 -37 -8 -53 -4 -38 10 -73 4
-73 -14 0 -7 12 -16 28 -20 57 -12 91 -41 77 -64 -3 -4 -47 5 -97 20 -150 46
-194 62 -219 82 l-24 18 25 20 c42 33 83 50 96 39 8 -7 18 -2 31 16 16 22 29
27 79 32 57 5 92 -4 165 -44 15 -9 16 40 1 70 -17 34 -47 61 -97 88 -16 9 -32
24 -33 34 -2 10 14 43 35 74 22 31 45 72 52 91 30 78 114 241 129 250 10 5 12
10 5 10 -9 0 -10 7 -3 26 14 37 12 52 -7 57 -17 4 -17 5 0 6 9 0 26 -8 37 -19
11 -11 20 -16 20 -11 0 6 -4 12 -10 16 -5 3 -7 33 -3 69 6 66 -1 116 -16 116
-5 0 -7 -30 -5 -67 3 -48 1 -61 -5 -43 -7 19 -9 20 -10 7 -1 -11 -8 -34 -17
-53 -10 -20 -15 -50 -12 -74 3 -38 -5 -54 -15 -27 -3 7 -6 5 -6 -5 -1 -10 -6
-18 -12 -18 -5 0 -8 -4 -4 -9 7 -12 -31 -78 -63 -111 l-25 -25 8 25 c4 14 10
30 12 36 2 7 0 15 -6 19 -6 3 -11 24 -11 46 0 33 -4 41 -26 49 -14 6 -47 10
-73 10 -57 0 -71 12 -71 60 0 46 -8 55 -32 33 -18 -16 -18 -16 -12 0 3 9 2 17
-2 17 -5 0 -10 18 -11 41 -2 22 1 38 6 35 5 -3 8 30 8 73 -1 72 1 82 23 101
16 14 26 17 31 9 6 -11 217 -14 228 -4 2 3 -23 5 -57 5 -34 0 -62 3 -62 6 0
15 32 35 49 29 11 -3 22 -1 26 5 3 5 21 11 38 11 25 1 21 3 -18 10 -27 5 -76
6 -107 3 -39 -4 -58 -2 -58 5 0 6 9 11 21 11 40 0 101 43 92 65 -2 8 -11 11
-19 8 -8 -3 -14 0 -14 6 0 6 7 11 15 11 16 0 21 45 6 54 -5 4 -7 -2 -4 -13 3
-10 0 -22 -6 -25 -10 -7 -13 40 -13 211 0 46 8 66 23 58 5 -4 9 16 9 44 0 31
-4 51 -11 51 -6 0 -9 -7 -5 -15 3 -8 1 -15 -4 -15 -6 0 -10 8 -10 18 0 12 -3
13 -8 5 -10 -16 -55 -5 -48 12 3 8 -2 16 -10 19 -12 5 -14 1 -9 -17 4 -12 9
-30 11 -39 6 -20 -11 -23 -65 -12 -20 4 -30 12 -29 22 2 8 -3 17 -9 19 -7 3
-13 -1 -13 -7 0 -9 -8 -7 -24 4 -14 9 -27 12 -30 7 -3 -5 8 -14 25 -20 24 -8
30 -15 24 -28 -4 -10 -10 -30 -13 -45 -2 -16 -10 -28 -17 -28 -14 0 -15 31 -1
41 4 4 -4 7 -18 7 -14 0 -26 -4 -26 -9 0 -5 5 -9 10 -9 6 0 10 -4 10 -9 0 -14
-49 -7 -55 8 -3 8 -3 16 0 19 3 3 5 0 5 -6 0 -7 4 -12 9 -12 13 0 1 38 -14 44
-12 4 -28 -26 -26 -49 0 -5 -11 -15 -24 -22 -20 -9 -25 -8 -25 2 0 8 -14 15
-32 17 -20 2 -32 8 -30 16 1 6 -4 12 -12 12 -8 0 -17 6 -20 13 -3 6 -5 -5 -3
-25 3 -37 -5 -49 -19 -27 -4 8 -9 7 -15 -2 -7 -11 -9 -10 -9 4 0 22 -16 22
-25 0 -7 -17 -8 -16 -15 2 -4 11 -3 23 2 26 7 4 6 9 0 13 -6 3 -16 -7 -23 -23
-7 -16 -17 -27 -21 -25 -5 3 -6 9 -3 14 7 11 -48 50 -69 50 -9 0 -16 5 -16 10
0 13 6 13 31 -1 11 -6 34 -7 50 -4 29 7 30 8 12 25 -18 17 -39 17 -28 -1 8
-12 -2 -11 -28 2 -39 21 -49 49 -17 46 15 -1 18 -6 14 -20 -4 -13 -2 -17 5
-13 6 4 11 18 11 32 0 16 -4 23 -12 18 -6 -4 -17 1 -25 11 -13 18 -13 18 -13
0 0 -10 -3 -15 -7 -12 -3 4 -11 -3 -17 -15 -6 -13 -20 -24 -31 -25 -16 -1 -16
-1 -2 3 19 6 22 19 8 29 -12 7 -34 -32 -26 -45 4 -6 -1 -7 -11 -3 -14 5 -16 3
-11 -11 5 -12 3 -16 -5 -13 -7 2 -12 9 -11 15 2 6 -6 14 -17 17 -11 4 -18 11
-14 16 4 6 11 6 20 -2 25 -21 28 -1 3 26 -22 23 -57 36 -45 16 3 -5 -1 -12
-10 -15 -10 -4 -15 0 -13 12 3 30 -1 38 -11 22 -5 -8 -12 -11 -16 -7 -4 3 -1
13 6 22 10 12 10 15 -4 15 -9 0 -16 -8 -16 -17 0 -15 -2 -15 -9 -4 -6 10 -19
12 -42 7 -23 -4 -29 -3 -20 3 12 8 12 12 2 25 -17 20 -6 50 14 42 9 -3 15 0
15 9 0 20 -21 30 -31 14 -6 -10 -9 -10 -9 -2 0 7 6 18 13 25 15 13 11 48 -4
48 -5 0 -9 7 -9 15 0 8 3 15 6 15 10 0 43 -44 44 -59 0 -11 3 -11 15 -1 8 7
12 16 9 21 -11 19 8 30 22 12 14 -17 15 -17 13 2 -2 33 1 41 11 25 6 -10 10
-11 10 -2 0 6 6 12 14 12 8 0 17 6 19 13 3 7 6 5 6 -5 1 -10 -6 -18 -15 -18
-14 0 -14 -2 -3 -16 8 -10 15 -12 17 -5 2 6 12 11 23 11 12 0 16 5 13 15 -4
10 0 15 11 15 27 0 54 41 44 67 -5 13 -4 23 2 25 5 2 11 13 12 26 0 12 7 22
14 22 12 0 17 19 14 47 -1 8 5 10 14 7 18 -7 18 -4 5 30 -7 21 -6 26 5 26 18
0 19 21 3 39 -11 11 -10 13 5 8 13 -5 17 -1 17 21 0 16 -5 33 -10 40 -7 9 -7
9 2 2 22 -19 41 -12 36 14 -3 16 -1 23 7 20 7 -3 15 2 19 11 3 9 10 14 14 11
4 -2 9 11 9 30 1 21 -3 32 -9 28 -6 -4 -9 -1 -6 7 13 38 78 -1 78 -46 0 -8 5
-15 11 -15 7 0 9 11 5 30 -5 28 -4 30 25 30 27 0 30 2 18 16 -7 8 -21 13 -31
11 -15 -4 -18 1 -18 34 0 21 -4 39 -10 39 -5 0 -10 -7 -10 -15 0 -8 -4 -15
-10 -15 -15 0 -12 16 6 31 14 11 20 10 40 -14 17 -20 24 -24 24 -12 0 25 -19
55 -35 55 -18 0 -28 17 -15 25 5 3 22 -7 36 -22 15 -16 35 -27 47 -26 14 1 16
0 5 -3 -9 -3 -18 -15 -20 -27 -4 -26 11 -67 26 -67 16 0 66 -52 65 -69 0 -11
-2 -12 -6 -3 -2 6 -9 10 -14 7 -5 -4 -6 1 -3 10 5 11 0 18 -15 22 -11 3 -18 9
-15 14 3 5 -4 9 -15 9 -17 0 -19 -5 -15 -45 4 -30 1 -45 -6 -45 -6 0 -8 -5 -5
-10 4 -6 10 -8 15 -5 5 3 11 1 15 -5 3 -5 14 -10 23 -9 12 0 10 3 -7 10 -15 6
-21 14 -17 25 3 9 6 22 6 30 0 9 4 13 9 10 5 -3 7 -15 4 -26 -6 -22 12 -28 20
-7 3 6 6 1 6 -12 1 -23 2 -23 19 -8 14 13 21 14 30 5 9 -9 12 -9 12 0 0 6 7 9
16 5 8 -3 13 -12 10 -19 -3 -8 1 -14 9 -14 9 0 15 10 16 28 0 15 3 21 6 14 4
-9 9 -10 18 -2 9 8 14 6 19 -5 6 -17 36 -21 36 -5 0 6 -4 10 -10 10 -5 0 -10
5 -10 11 0 6 7 9 15 5 17 -6 21 9 5 19 -5 3 -10 11 -10 18 0 6 6 2 14 -8 14
-19 15 -19 35 5 l21 25 -10 -29 c-13 -35 1 -56 31 -49 14 4 17 9 10 16 -21 21
-11 29 14 13 30 -20 39 -20 32 -1 -9 21 10 28 22 8 6 -10 11 -12 11 -5 0 6 7
12 15 12 8 0 15 5 15 10 0 6 -7 10 -15 10 -8 0 -15 7 -15 15 0 26 23 16 63
-27 l38 -42 -3 29 c-2 21 2 30 15 33 13 3 17 -3 17 -25 0 -15 4 -34 8 -41 5
-7 9 25 10 75 2 93 -1 105 -33 118 -17 7 -18 9 -3 12 9 2 35 -5 57 -16 39 -21
41 -21 73 -2 39 22 98 35 98 21 0 -6 -9 -10 -19 -10 -10 0 -29 -9 -42 -19 -22
-18 -24 -28 -28 -137 -2 -91 0 -120 10 -128 8 -6 15 -24 16 -41 0 -16 -1 -24
-4 -17 -5 14 -23 16 -23 3 0 -14 44 -80 53 -81 5 0 5 5 2 10 -3 6 -2 10 4 10
5 0 11 -5 13 -12 3 -7 4 19 4 58 0 139 74 213 221 217 49 2 64 -2 72 -15 6
-10 16 -18 22 -18 5 0 7 5 4 10 -3 6 0 10 8 10 27 0 102 -93 116 -143 28 -99
-16 -221 -96 -264 -18 -10 -33 -21 -33 -25 0 -5 -3 -7 -7 -7 -27 4 -35 -1 -23
-16 7 -9 10 -18 6 -22 -3 -3 -6 -2 -6 4 0 6 -13 16 -30 21 -33 12 -47 1 -42
-31 3 -14 -2 -12 -22 8 -14 14 -31 25 -38 24 -10 0 -10 -2 0 -6 19 -8 14 -23
-8 -23 -11 0 -20 -4 -20 -10 0 -5 5 -10 10 -10 6 0 10 -4 10 -10 0 -14 -13
-12 -36 5 -19 15 -19 15 0 30 11 8 16 15 12 15 -5 0 -3 7 4 15 16 19 3 20 -15
1 -18 -17 -37 -99 -29 -120 11 -29 -42 -31 -85 -3 -46 31 -63 23 -24 -11 16
-13 22 -20 15 -17 -8 4 -32 8 -54 9 -35 2 -38 1 -22 -11 12 -8 50 -13 111 -13
l94 0 31 66 c36 77 57 69 29 -11 -29 -85 -36 -93 -76 -88 -28 3 -35 0 -35 -14
-1 -17 -2 -17 -13 -1 -8 10 -25 16 -47 15 -27 -2 -35 -7 -41 -27 -5 -21 -7
-22 -14 -8 -4 9 -4 22 0 28 4 6 -4 10 -20 10 -17 0 -29 -6 -31 -17 -4 -14 -17
-18 -52 -20 -29 -1 -39 1 -25 5 l22 7 -24 11 c-13 7 -24 9 -23 5 5 -39 -24
-42 -39 -3 l-11 27 -1 -29 c-1 -28 -1 -28 -56 -24 -31 3 -55 1 -55 -5 0 -5 -7
-7 -15 -4 -8 4 -17 2 -20 -3 -4 -6 7 -10 24 -10 17 0 42 -5 56 -12 19 -9 30
-8 48 1 24 13 157 21 157 10 0 -11 39 -17 42 -7 5 14 55 -11 63 -31 3 -8 2
-17 -3 -19 -5 -1 -18 -9 -28 -17 -19 -15 -19 -15 1 -31 14 -11 16 -18 8 -21
-22 -8 -26 -5 -37 29 -6 18 -17 34 -23 34 -7 1 -17 2 -23 3 -5 0 -10 8 -10 16
0 8 -7 15 -15 15 -8 0 -15 -5 -15 -12 0 -6 -6 -3 -14 7 -8 12 -19 16 -31 12
-15 -7 -15 -9 6 -26 l22 -18 -23 2 c-12 1 -29 10 -36 20 -13 18 -14 18 -14 -2
0 -12 5 -25 11 -29 8 -5 8 -9 -1 -14 -8 -5 -13 -43 -14 -113 l-1 -106 75 -3
c42 -2 78 1 82 7 4 6 3 12 -3 13 -6 3 -6 9 2 18 6 8 15 12 19 9 5 -3 11 -1 15
5 3 5 2 10 -3 10 -11 0 -3 48 9 56 5 3 9 -5 9 -18 0 -22 1 -21 15 6 18 34 13
46 -18 38 -18 -4 -15 1 16 30 20 19 37 42 37 51 0 9 6 19 13 23 6 4 9 4 6 0
-4 -4 -3 -22 1 -41 12 -52 -7 -117 -46 -164 l-35 -41 42 -45 c24 -26 51 -45
63 -45 17 0 18 2 6 10 -8 5 -12 12 -8 15 3 3 12 -1 20 -9 19 -18 38 -3 38 30
0 13 4 25 9 28 14 9 10 138 -5 169 -8 15 -21 27 -29 27 -8 0 -15 5 -15 10 0
17 30 11 61 -10 l28 -21 29 21 c17 13 39 20 53 18 l24 -4 -26 -11 c-15 -7 -29
-22 -32 -35 -10 -36 -8 -140 2 -133 5 3 12 1 16 -5 12 -20 26 2 20 31 -4 18
-3 29 4 29 6 0 11 -4 11 -10 0 -17 25 -11 43 10 9 11 17 27 17 35 0 8 6 15 13
15 8 0 7 4 -3 10 -9 6 -11 13 -5 18 6 4 16 18 23 32 22 43 44 66 49 53 7 -19
61 -84 69 -83 4 1 10 -4 14 -11 10 -16 39 10 32 29 -2 6 1 12 7 12 6 0 11 -4
11 -10 0 -18 18 -11 25 9 3 11 15 23 26 26 12 4 18 12 15 21 -7 17 34 20 51 3
8 -8 21 -7 47 2 20 7 31 16 25 20 -6 3 0 8 14 11 20 4 24 1 20 -11 -3 -9 7 -4
21 12 14 15 34 27 46 27 11 0 20 7 20 15 0 18 -17 20 -22 4 -2 -7 -10 -10 -18
-7 -11 3 -10 9 7 23 18 16 21 26 16 79 -2 33 -8 65 -13 71 -6 8 3 11 28 12 20
0 31 -2 25 -4 -7 -3 -13 -21 -13 -41 0 -26 3 -33 11 -25 7 7 23 8 46 3 l35 -8
-6 31 c-3 17 -11 34 -18 38 -6 4 5 7 25 6 20 0 34 -4 31 -8 -7 -12 7 -39 21
-39 17 0 26 25 14 37 -7 7 12 11 55 12 63 1 66 0 65 -21 0 -13 -3 -17 -6 -10
-2 6 -20 12 -39 12 -31 0 -34 -2 -24 -19 13 -25 13 -34 0 -26 -5 3 -10 2 -10
-3 0 -13 63 -13 72 1 5 7 8 1 8 -15 0 -21 -4 -26 -16 -21 -14 5 -15 3 -5 -16
9 -17 9 -22 -1 -25 -39 -13 -42 -14 -20 -15 13 -1 33 9 44 22 20 22 20 17 2
-28 -3 -8 -1 -15 5 -15 6 0 11 5 11 10 0 6 8 5 20 -2 17 -11 24 -8 55 22 32
31 35 32 35 13 0 -14 -13 -29 -35 -43 -19 -12 -35 -28 -35 -36 0 -8 -3 -13 -7
-13 -20 3 -24 -2 -13 -16 11 -13 18 -9 51 25 34 35 45 40 83 40 25 0 56 -4 69
-9 20 -8 29 -6 42 9 11 13 13 19 4 22 -9 3 -10 15 -4 43 9 38 9 39 13 11 l4
-29 11 23 c16 32 32 35 45 8 l11 -23 0 23 c1 12 5 22 10 22 5 0 7 9 4 20 -6
22 11 27 24 8 4 -7 19 -22 32 -33 l24 -20 -22 31 c-24 33 -20 64 9 64 10 0 23
7 30 15 7 8 23 15 36 15 13 0 24 5 24 11 0 6 6 17 14 24 12 12 13 9 9 -25 -4
-28 -2 -40 7 -40 7 0 10 7 6 16 -4 9 0 27 9 40 13 20 18 22 34 12 14 -8 16
-14 7 -23 -6 -7 -17 -10 -23 -8 -19 8 -16 -5 8 -30 17 -17 21 -18 16 -4 -4 10
-1 17 6 17 7 0 13 -16 15 -37 1 -21 7 -42 12 -47 7 -7 9 157 8 484 l-3 495
-1882 3 -1883 2 0 -897z m2709 480 c31 -31 33 -37 29 -84 -4 -36 -12 -58 -32
-78 -14 -15 -26 -33 -26 -40 0 -12 67 -130 93 -163 18 -22 70 -23 88 -2 19 23
21 224 2 224 -7 0 -13 9 -13 20 0 11 5 19 11 18 6 -2 12 14 13 35 2 28 0 37
-10 33 -7 -3 -16 -1 -19 4 -4 6 0 10 7 10 13 0 44 39 41 51 -1 3 40 4 90 3
131 -4 128 -4 121 -16 -5 -8 -1 -9 10 -5 40 16 105 -62 120 -144 17 -93 -43
-216 -121 -251 -41 -18 -66 -20 -197 -20 -82 1 -161 4 -175 7 -30 7 -82 71
-112 139 -15 34 -25 46 -36 42 -8 -3 -25 -6 -37 -6 -21 0 -23 -4 -20 -49 4
-87 13 -111 40 -111 13 0 24 -4 24 -10 0 -6 -37 -10 -91 -10 -57 0 -88 -4 -84
-10 3 -6 -1 -7 -10 -4 -20 8 -14 14 38 39 l42 20 2 73 c2 62 0 73 -12 68 -8
-3 -15 -1 -15 3 0 5 6 11 14 14 9 4 14 22 14 57 0 40 -3 50 -14 46 -8 -3 -14
-1 -14 3 0 5 7 11 15 15 18 7 20 56 3 57 -10 0 -10 2 0 6 6 2 12 10 12 17 0
22 42 35 110 34 60 -1 68 -4 99 -35z m-405 -467 c-5 -20 -1 -24 28 -30 18 -4
42 -7 53 -7 11 -1 14 -3 8 -6 -10 -3 -9 -11 2 -34 14 -26 14 -32 -2 -66 -25
-51 -60 -70 -109 -58 -77 19 -91 120 -24 162 29 18 30 20 30 48 0 8 5 15 10
15 6 0 8 -10 4 -24z m-1392 -730 c18 -8 44 -17 58 -20 14 -3 50 -28 81 -56 46
-40 58 -57 63 -90 3 -22 20 -67 37 -101 17 -33 29 -62 27 -63 -4 -5 -152 66
-159 76 -3 5 -22 2 -41 -6 l-36 -15 10 -43 c5 -24 13 -64 17 -90 l8 -48 -31
-1 c-91 -2 -131 -27 -131 -80 0 -19 5 -33 10 -32 6 0 19 3 30 5 13 2 23 -6 33
-24 8 -18 21 -28 36 -28 23 0 71 -29 49 -30 -6 0 -14 3 -16 8 -11 17 -126 6
-176 -18 -73 -34 -68 -53 12 -45 48 5 75 2 117 -13 l55 -19 -32 -7 c-18 -4
-40 -3 -52 4 -25 13 -101 2 -101 -15 0 -6 -10 -17 -23 -22 -19 -9 -28 -7 -48
9 -16 13 -20 21 -11 25 17 7 15 23 -4 23 -8 0 -12 -5 -9 -10 3 -6 -1 -13 -9
-16 -9 -3 -16 -13 -16 -21 0 -13 -3 -13 -15 -3 -12 10 -16 9 -21 -4 -5 -12
-16 -16 -38 -14 -28 3 -31 1 -28 -22 l4 -25 -24 23 c-13 12 -29 22 -36 22 -6
0 -16 8 -22 18 -9 14 -10 12 -5 -12 6 -26 5 -28 -10 -16 -14 12 -18 12 -25 0
-13 -20 -24 52 -15 98 4 20 9 62 11 92 3 30 7 66 10 80 3 14 7 33 8 43 1 10 7
22 13 25 5 4 9 17 8 29 -1 12 2 20 7 17 4 -3 13 8 19 23 6 15 20 44 30 64 22
43 24 53 7 44 -7 -4 -5 0 4 8 10 8 14 18 10 22 -4 5 -2 5 5 1 7 -4 24 13 45
44 18 27 35 50 38 50 3 0 19 12 35 26 50 43 72 55 105 56 17 1 26 4 19 8 -7 5
1 20 27 44 45 41 43 41 86 22z m605 -483 c15 -10 49 -20 77 -23 47 -5 51 -7
57 -37 3 -18 2 -30 -2 -27 -5 3 -9 0 -9 -5 0 -6 -9 -11 -20 -11 -16 0 -19 -5
-15 -23 7 -27 -24 -72 -125 -178 -43 -45 -73 -69 -87 -69 -27 0 -29 16 -8 56
8 16 15 39 15 52 0 12 4 22 9 22 10 0 33 98 33 138 0 12 4 22 9 22 4 0 11 17
14 38 12 70 12 71 52 45z m-782 -307 c6 -1 15 -5 21 -8 5 -4 35 -10 65 -14 58
-8 110 -31 117 -53 4 -11 -5 -13 -37 -8 -23 3 -69 -1 -104 -10 -86 -20 -117
-23 -117 -12 0 6 -8 9 -17 7 -11 -2 -19 6 -23 22 -5 21 -7 22 -13 8 -8 -22
-24 -24 -24 -3 0 8 4 15 9 15 5 0 7 4 4 9 -3 4 6 6 19 3 14 -2 25 0 25 5 0 5
10 9 21 10 30 3 34 10 18 30 -13 15 -12 16 6 9 11 -4 25 -9 30 -10z m939 -630
c-2 -18 73 -107 86 -103 11 3 44 -20 94 -63 66 -57 100 -78 147 -90 94 -25
140 -71 106 -104 -12 -13 -18 -14 -29 -3 -18 16 -116 80 -150 97 -15 7 -25 17
-22 22 6 10 9 10 -59 -3 -32 -5 -66 -7 -76 -4 -21 6 -44 37 -56 74 -7 24 -7
24 44 18 30 -4 51 -2 51 3 0 6 -9 10 -21 10 -11 0 -17 5 -14 10 3 6 2 10 -4
10 -5 0 -11 -5 -13 -10 -2 -6 -19 3 -38 19 -19 15 -49 31 -67 35 -30 7 -73 36
-73 50 0 3 8 6 19 6 10 0 26 12 35 26 19 27 42 27 40 0z m1189 -358 c47 -46
54 -68 43 -128 -5 -30 -10 -67 -10 -82 -1 -14 -4 -24 -8 -22 -4 3 -12 -14 -18
-36 -6 -22 -15 -40 -19 -40 -21 0 -31 192 -13 227 6 11 9 23 5 26 -3 4 0 14 8
23 11 14 11 18 -4 29 -16 12 -23 25 -12 25 3 0 15 -10 28 -22z m-1205 -8 c11
-18 10 -20 -9 -20 -11 0 -17 -4 -14 -11 4 -5 12 -8 18 -6 7 2 18 -2 25 -10 15
-15 46 -18 38 -4 -4 5 0 12 6 14 9 4 7 6 -3 6 -21 1 -43 27 -30 35 11 7 73
-52 66 -64 -3 -5 -20 -12 -37 -15 -23 -5 -59 -35 -124 -104 -51 -53 -91 -98
-89 -99 2 -2 22 7 45 21 23 14 36 27 30 29 -8 2 -6 9 6 18 16 13 17 13 9 0 -6
-10 -2 -10 12 3 11 9 27 15 36 12 8 -4 18 -2 22 4 4 7 -1 9 -12 5 -11 -4 -5 6
15 25 26 25 32 37 26 54 -6 21 -6 21 13 5 24 -22 29 -22 36 -4 4 11 1 14 -11
10 -9 -2 -7 1 5 7 13 7 25 21 29 31 6 19 7 19 25 2 10 -9 19 -23 19 -29 0 -7
7 -18 15 -25 8 -7 13 -16 10 -20 -9 -14 7 -40 24 -40 14 0 14 -2 1 -10 -11 -7
-12 -14 -4 -27 14 -23 36 -29 27 -8 -5 14 -2 16 15 10 13 -4 22 -2 22 4 0 6
-6 11 -14 11 -7 0 -16 9 -19 21 -3 12 -10 18 -16 14 -7 -4 -11 4 -11 20 0 17
5 25 13 22 6 -2 12 -12 12 -23 0 -10 7 -19 15 -20 32 -1 48 -15 43 -37 -5 -22
-5 -22 10 -2 21 25 21 35 2 35 -8 0 -15 8 -15 19 0 11 -9 21 -22 25 -19 5 -20
8 -9 15 12 8 12 12 2 25 -21 25 12 21 70 -9 27 -13 49 -19 49 -13 0 6 11 3 25
-6 22 -14 25 -15 25 -1 0 27 18 16 25 -15 4 -16 16 -38 29 -47 28 -23 57 -180
36 -193 -9 -6 -8 -10 6 -19 15 -8 16 -12 5 -20 -9 -6 -10 -11 -2 -15 6 -4 11
-2 11 3 0 6 6 10 12 9 7 -2 14 7 16 20 4 26 1 26 40 6 35 -17 57 -42 28 -31
-13 5 -17 3 -13 -7 3 -9 -7 -41 -23 -73 -20 -39 -26 -61 -19 -69 7 -8 6 -14
-3 -17 -10 -4 -10 -6 -1 -6 7 -1 19 12 28 28 8 17 20 33 26 37 6 3 3 -6 -7
-22 -14 -20 -15 -29 -6 -32 7 -2 9 -8 6 -13 -3 -6 5 -8 20 -5 18 3 23 1 19
-10 -6 -17 -5 -16 -36 -5 -18 7 -30 6 -43 -3 -16 -12 -16 -15 -1 -36 l15 -22
17 26 c10 15 20 24 22 22 3 -3 -5 -19 -17 -36 -16 -22 -25 -28 -30 -20 -4 7
-13 9 -19 5 -8 -4 -9 -11 -3 -18 14 -18 7 -62 -9 -61 -21 1 -24 -115 -3 -123
8 -3 13 -12 10 -19 -3 -8 1 -14 9 -14 11 0 14 -13 11 -60 -3 -46 -1 -62 11
-69 21 -11 -1 -24 -27 -16 -13 4 -20 15 -20 31 0 14 -4 22 -10 19 -5 -3 -7
-19 -3 -35 3 -19 1 -30 -5 -30 -17 0 -52 -41 -52 -61 0 -26 -103 -35 -172 -14
-15 5 -20 4 -13 -3 6 -5 19 -12 29 -14 11 -1 21 -9 24 -17 3 -10 -2 -12 -22
-7 -14 3 -26 2 -26 -3 0 -10 -92 -7 -157 4 -31 6 -33 9 -34 48 -1 23 -1 45 0
49 0 4 -8 10 -19 13 -11 4 -20 13 -20 21 0 8 -4 12 -10 9 -5 -3 -10 -15 -10
-26 0 -12 -5 -19 -12 -16 -7 2 -12 12 -12 21 2 19 -12 22 -19 4 -3 -7 -6 -5
-6 6 -1 26 -32 48 -48 34 -9 -7 -13 -7 -13 1 0 21 -20 11 -26 -13 -4 -17 -12
-23 -30 -22 -13 0 -26 7 -29 15 -3 7 -12 10 -21 7 -12 -4 -15 -2 -10 9 3 8 1
15 -4 15 -6 0 -10 -6 -10 -12 0 -10 -3 -9 -9 1 -7 11 -11 10 -20 -5 -9 -17
-10 -16 -11 9 0 15 -5 27 -10 27 -7 0 -7 6 0 19 12 24 2 62 -11 38 -11 -20
-59 -10 -59 12 0 9 5 22 12 29 9 9 9 12 0 12 -7 0 -12 -4 -12 -8 0 -5 -7 -17
-16 -28 -15 -19 -15 -19 -11 3 3 13 -1 24 -10 27 -8 3 -11 11 -7 17 3 6 0 16
-7 21 -10 6 -5 8 16 4 17 -3 46 -2 65 3 l35 8 -25 12 c-43 20 -75 41 -65 41 5
0 4 5 -3 12 -17 17 -15 38 3 38 21 0 19 13 -5 35 -18 17 -20 17 -26 0 -4 -9
-7 -25 -8 -36 -2 -29 -10 -27 -40 9 -31 36 -42 40 -50 15 -3 -10 -3 -2 -1 17
5 37 -16 77 -34 65 -15 -8 -14 -3 4 31 9 18 15 23 15 12 0 -23 18 -32 35 -18
8 7 22 10 30 6 9 -3 24 3 35 14 25 25 26 41 3 33 -15 -5 -16 -3 -5 8 6 7 12
21 12 32 0 10 5 15 11 12 6 -4 8 -13 5 -21 -3 -8 0 -13 7 -11 7 1 11 -8 8 -27
-2 -23 0 -28 14 -22 9 3 20 6 24 6 4 0 8 28 9 63 2 50 8 70 31 103 l28 40 -36
-18 c-19 -10 -39 -25 -43 -33 -5 -8 -14 -12 -21 -9 -7 2 -26 -10 -42 -28 -17
-18 -23 -27 -15 -20 26 22 29 13 9 -29 -17 -34 -22 -39 -35 -28 -13 10 -17 10
-25 -2 -9 -15 -6 30 6 66 5 18 4 17 -11 -2 -19 -26 -44 -30 -44 -9 0 17 -18
31 -27 22 -3 -3 0 -13 8 -22 13 -16 12 -16 -8 -6 -12 7 -29 19 -38 28 -29 30
-26 8 5 -31 38 -47 38 -66 1 -88 l-30 -17 -3 36 -3 36 -28 -26 c-15 -14 -35
-26 -44 -26 -11 0 -9 5 8 20 l24 20 -30 -7 c-46 -11 -124 -8 -138 6 -9 10 -8
11 7 5 14 -5 17 -3 14 7 -3 8 -10 14 -15 14 -6 0 -15 3 -19 7 -4 4 -13 0 -20
-10 -7 -9 -14 -12 -14 -6 0 15 39 54 55 54 8 0 19 8 24 18 10 16 12 16 25 -2
14 -18 42 -14 31 5 -4 5 4 9 17 10 13 0 17 3 11 6 -7 2 -13 11 -13 19 0 8 -5
14 -10 14 -6 0 -10 6 -8 14 2 7 -8 23 -22 36 l-25 22 25 -7 c14 -4 36 -9 50
-12 l25 -6 -20 22 -19 22 24 -6 c33 -8 60 13 50 40 -7 19 -8 18 -20 -8 -10
-19 -19 -26 -31 -22 -9 3 -20 1 -24 -5 -13 -21 -34 -9 -44 27 -12 44 -10 48
78 143 55 60 61 64 76 49 16 -15 15 -18 -10 -43 -14 -14 -32 -26 -40 -26 -8 0
-15 -8 -15 -17 0 -11 3 -14 8 -8 10 14 63 37 70 30 3 -3 -3 -12 -14 -20 -18
-14 -17 -14 11 -15 17 0 26 4 20 8 -15 11 -14 54 1 48 8 -3 18 3 23 12 9 16
10 16 16 0 4 -9 13 -14 21 -11 10 3 16 -5 20 -26 4 -17 11 -31 16 -31 5 0 6
-5 2 -11 -4 -6 1 -9 13 -7 10 1 32 -5 47 -16 23 -15 30 -16 37 -5 6 10 9 11 9
2 0 -7 6 -13 14 -13 8 0 18 -18 24 -40 5 -23 6 -40 1 -40 -5 0 -9 -7 -9 -16 0
-8 4 -13 9 -10 5 4 7 -3 4 -14 -3 -11 -12 -20 -19 -20 -8 0 -14 -4 -14 -10 0
-15 12 -12 39 10 19 17 22 27 19 65 -3 49 11 65 36 39 13 -13 17 -11 30 13 8
16 15 22 16 15 0 -17 -28 -69 -55 -101 l-20 -24 29 19 c21 13 31 15 34 6 2 -6
13 -12 23 -12 13 0 18 4 13 13 -4 6 2 3 14 -7 20 -18 22 -18 22 -2 0 10 10 26
23 37 20 17 20 18 2 12 -11 -4 -31 -13 -45 -20 -33 -17 -50 -16 -50 2 0 8 4
15 10 15 14 0 25 73 12 78 -8 2 -5 17 8 43 11 21 22 39 24 39 7 0 -7 -51 -15
-56 -5 -3 -9 -10 -9 -15 0 -6 4 -8 9 -5 5 3 11 -1 14 -8 3 -8 1 -16 -5 -18 -6
-2 -9 -12 -7 -21 3 -14 27 5 97 77 l94 95 -32 28 c-18 15 -51 36 -73 45 l-42
17 41 -5 c26 -4 44 -2 48 5 11 17 30 13 44 -9z m-778 -309 c6 -23 5 -31 -4
-31 -8 0 -11 -12 -8 -33 3 -28 -1 -37 -23 -51 -14 -9 -32 -15 -38 -13 -21 8
-47 -12 -40 -31 6 -14 4 -15 -9 -4 -14 11 -19 8 -39 -15 -12 -15 -19 -20 -16
-11 3 9 2 18 -3 20 -5 2 -11 14 -12 27 -2 17 4 28 20 36 29 15 42 28 19 19 -9
-3 -17 -1 -17 4 0 6 11 12 25 14 14 2 25 5 23 8 -5 13 100 106 109 96 2 -2 8
-17 13 -35z m2433 -263 c14 -20 16 -21 16 -5 1 10 6 15 11 12 6 -3 10 -1 10 5
0 6 5 8 13 3 16 -10 67 -13 67 -3 0 14 65 5 77 -10 9 -10 12 -11 13 -2 0 6 5
12 11 12 5 0 7 -4 4 -10 -4 -6 5 -10 19 -10 16 0 26 6 26 15 0 11 7 10 35 -6
20 -12 41 -30 49 -40 7 -10 16 -16 19 -13 4 4 -2 19 -13 34 -18 25 -18 29 -4
34 27 11 37 7 24 -9 -7 -9 -9 -19 -5 -23 4 -4 10 -1 12 6 3 6 10 9 16 5 7 -4
16 -8 22 -8 5 0 10 -16 11 -35 2 -20 3 -40 4 -45 5 -22 -1 -35 -15 -35 -17 0
-19 -11 -6 -25 5 -6 11 -29 15 -52 7 -48 -8 -57 -39 -26 -10 9 -30 18 -46 20
-15 1 -32 3 -36 4 -37 6 -46 -23 -13 -41 11 -6 20 -15 20 -20 0 -14 -27 -12
-33 3 -3 7 -6 5 -6 -5 -1 -13 7 -18 26 -18 14 0 23 -3 19 -7 -10 -10 -96 -10
-96 0 0 4 1 9 3 11 1 2 -7 14 -18 26 l-20 23 32 -5 c30 -4 32 -3 18 12 -8 9
-15 22 -15 29 0 21 -23 38 -63 45 -29 5 -37 4 -37 -8 0 -23 -15 -27 -47 -15
-15 7 -32 13 -38 15 -5 1 -19 5 -30 9 -19 6 -19 6 -2 -8 10 -8 15 -21 11 -31
-6 -16 -11 -18 -39 -18 -31 0 -35 3 -35 30 0 16 -9 46 -19 68 -11 22 -22 56
-26 77 -7 36 -7 37 23 37 17 0 34 5 37 10 10 16 21 12 38 -12z m-2683 -780
l-35 -21 30 -10 c35 -12 77 -42 69 -50 -3 -3 4 -8 15 -12 12 -3 21 -10 21 -14
0 -12 47 -31 75 -31 18 0 25 -6 25 -18 0 -10 11 -29 25 -42 30 -28 33 -45 6
-30 -11 5 -37 14 -58 18 -22 5 -38 14 -39 22 -2 34 -5 40 -15 40 -8 0 -8 -5 1
-15 8 -10 9 -19 3 -27 -5 -7 -18 -41 -29 -76 -21 -68 -33 -74 -47 -22 -6 24
-5 35 5 41 7 5 13 14 14 21 2 24 16 48 25 42 5 -3 10 0 10 5 4 35 3 45 -8 49
-8 2 -13 -5 -13 -17 0 -28 -20 -37 -21 -9 0 20 -2 19 -11 -7 -13 -37 -14 -38
-27 -30 -8 4 -6 11 4 22 23 22 13 25 -23 7 -34 -16 -40 -28 -20 -40 7 -4 8 -3
4 4 -10 17 0 15 18 -4 21 -20 21 -41 1 -24 -8 7 -15 9 -15 6 0 -4 -9 -2 -21 4
-16 9 -24 8 -37 -3 -30 -25 -39 -27 -52 -12 -11 13 -10 14 4 9 20 -8 45 13 91
77 l34 48 -47 -20 c-26 -11 -55 -28 -64 -36 -16 -15 -18 -15 -18 0 0 10 -5 14
-15 11 -8 -4 -15 -1 -15 5 0 6 3 11 8 11 4 0 13 10 21 21 11 19 11 21 -3 16
-15 -6 -15 -4 -2 21 19 38 45 59 91 75 60 22 74 20 35 -5z m1028 -123 c-1 -5
-8 -9 -15 -7 -7 2 -13 -2 -13 -8 0 -5 18 -10 40 -10 22 0 40 5 40 10 0 6 -7
10 -16 10 -8 0 -12 5 -9 10 12 19 33 10 39 -16 5 -19 12 -25 25 -21 9 2 44 0
77 -5 111 -16 295 -18 317 -3 19 13 26 13 65 -1 9 -4 24 -8 32 -9 95 -12 135
-30 151 -66 6 -16 15 -29 20 -29 5 0 9 -18 9 -40 0 -34 -3 -40 -21 -40 -11 0
-17 -4 -14 -10 3 -5 2 -10 -3 -10 -6 0 -12 7 -16 15 -4 11 -13 14 -30 9 -13
-3 -27 -1 -30 4 -7 11 -46 4 -46 -8 0 -9 -52 -6 -69 4 -6 4 -18 3 -26 -4 -10
-9 -16 -7 -23 6 -7 13 -18 16 -46 11 -20 -3 -38 -1 -42 5 -4 6 -10 5 -15 -3
-8 -12 -11 -11 -19 1 -9 13 -11 13 -20 0 -7 -12 -12 -12 -22 -2 -17 17 -28 15
-28 -5 0 -14 -2 -15 -9 -5 -8 13 -74 24 -135 22 -15 0 -35 5 -44 12 -13 11
-15 10 -10 -4 7 -17 -27 -34 -37 -18 -8 13 -56 5 -66 -11 -6 -10 -11 -11 -20
-2 -6 6 -18 9 -26 6 -9 -4 -16 2 -20 15 -3 13 -10 19 -19 15 -8 -3 -14 -1 -14
3 1 12 30 50 30 40 0 -5 7 -3 15 4 9 7 47 14 86 16 68 2 112 14 55 14 -15 0
-34 7 -42 15 -8 8 -21 12 -28 9 -8 -3 -17 0 -21 6 -5 8 -10 8 -20 0 -10 -8
-19 -9 -32 -1 -17 10 -17 10 1 11 15 0 16 3 6 15 -7 8 -17 12 -22 9 -6 -4 -8
2 -6 12 2 11 10 18 16 16 7 -1 15 5 19 13 6 18 55 17 51 0z"/>
<path d="M2629 4905 c0 -25 -1 -63 -1 -85 0 -22 1 -46 1 -54 1 -10 17 -15 51
-18 48 -3 52 -1 75 32 27 39 44 100 27 100 -6 0 -12 -6 -15 -12 -3 -7 -12 4
-21 24 -18 42 -41 58 -85 58 -30 0 -31 -2 -32 -45z"/>
<path d="M3009 4938 c0 -7 0 -85 0 -172 0 -151 -1 -160 -22 -177 -22 -18 -22
-18 33 -20 122 -5 151 0 186 26 19 14 41 39 49 56 14 26 14 29 -1 29 -11 0
-15 6 -11 18 2 9 6 24 8 32 2 8 16 20 32 27 15 7 27 19 27 28 0 10 -9 15 -27
15 -24 0 -33 9 -57 56 -36 68 -80 94 -161 94 -37 0 -55 -4 -56 -12z"/>
<path d="M2370 4430 c0 -5 -6 -9 -12 -7 -7 1 -12 -6 -12 -15 1 -10 -2 -18 -7
-18 -14 0 0 -62 18 -82 25 -27 79 -23 99 7 29 44 -15 125 -68 125 -10 0 -18
-4 -18 -10z"/>
<path d="M970 3530 c-16 -8 -101 -19 -188 -25 -60 -3 -73 -10 -65 -32 4 -11 3
-14 -5 -9 -16 10 -68 -28 -75 -54 -12 -47 60 -64 104 -24 9 9 20 11 23 6 7
-12 58 -13 73 0 7 6 14 5 18 -3 12 -19 -17 -30 -73 -27 -36 2 -52 -1 -52 -9 0
-9 22 -14 70 -15 39 -1 78 -2 88 -2 9 -1 16 4 15 11 -2 7 3 10 10 7 31 -11 87
84 87 147 0 32 -9 41 -30 29z"/>
<path d="M1917 5082 c-17 -3 -18 -10 -11 -65 4 -34 7 -70 6 -79 0 -10 3 -18 9
-18 5 0 9 -4 9 -10 0 -5 -7 -10 -15 -10 -18 0 -20 -21 -3 -38 8 -8 8 -12 1
-12 -6 0 -10 -24 -11 -60 0 -33 4 -60 9 -60 5 0 9 -5 9 -11 0 -5 -4 -7 -10 -4
-6 4 -10 -11 -10 -38 0 -33 5 -47 17 -51 14 -6 14 -8 -3 -20 -18 -14 -18 -15
1 -37 20 -22 20 -22 1 -15 -19 6 -19 6 -3 -12 21 -23 22 -42 3 -42 -7 0 -16
-9 -19 -20 -4 -16 0 -20 19 -20 l24 0 1 238 c0 130 2 270 4 310 1 40 0 74 -4
75 -3 2 -14 2 -24 -1z"/>
<path d="M2193 4941 c-47 -22 -62 -44 -78 -116 -14 -62 -2 -137 20 -128 8 3
15 0 15 -6 0 -6 -5 -11 -12 -11 -6 0 -4 -6 7 -13 10 -8 15 -19 12 -25 -11 -17
49 -61 75 -54 15 4 18 7 8 10 -8 2 -19 5 -25 7 -5 1 -14 2 -19 1 -15 -2 -26
43 -16 67 l9 22 0 -22 c1 -13 7 -23 15 -23 8 0 16 -7 20 -15 9 -23 29 -18 23
6 -3 12 -3 18 0 15 4 -3 12 -1 20 5 16 14 17 5 3 -22 -7 -13 -8 -25 -1 -37 9
-15 10 -15 11 4 0 22 17 34 46 34 9 0 12 -5 9 -11 -4 -6 -13 -8 -21 -5 -8 3
-14 -1 -14 -10 0 -12 6 -15 21 -11 17 5 18 3 8 -9 -7 -8 -18 -13 -25 -10 -7 3
-16 1 -20 -5 -3 -6 -11 -8 -18 -6 -6 2 -20 1 -31 -3 -16 -6 -11 -9 21 -14 77
-13 158 23 190 86 13 25 14 32 2 39 -10 7 -10 9 3 9 19 0 28 38 21 94 -3 30
-8 36 -22 31 -13 -4 -20 2 -28 22 -14 42 -61 94 -99 109 -44 19 -80 17 -130
-5z"/>
<path d="M1822 3922 c-2 -8 -2 -45 1 -83 4 -47 2 -69 -5 -69 -26 0 5 -14 45
-20 33 -5 47 -2 58 9 8 9 13 20 11 25 -2 4 4 6 13 2 10 -4 19 2 24 17 8 20 10
20 16 5 4 -10 12 -18 19 -18 19 0 16 37 -5 56 -23 21 -24 31 -4 31 8 0 15 -4
15 -9 0 -4 9 -8 21 -8 12 0 19 5 16 13 -2 6 -10 11 -16 10 -6 -2 -10 0 -10 5
3 18 -3 20 -32 10 -28 -9 -34 -8 -48 10 -20 25 -110 36 -119 14z"/>
<path d="M2495 3679 c-38 -3 43 -6 180 -7 141 -1 265 -6 285 -12 43 -12 552
-13 530 0 -22 12 -140 14 -305 5 -100 -5 -158 -3 -205 6 -68 13 -362 18 -485
8z"/>
</g>
</svg>
